<svg xmlns="http://www.w3.org/2000/svg" viewBox="0 0 500 500"><g id="freepik--background-simple--inject-15"><path d="M407.26,297.87c6.69-41.19-43.19-154.32-91.33-191.24-62.43-47.88-143.91-29-180.4,55.09C101.62,239.8,139,319.9,206.86,346.83,267.25,370.82,401.26,347.86,407.26,297.87Z" style="fill:#21005D"></path><path d="M407.26,297.87c6.69-41.19-43.19-154.32-91.33-191.24-62.43-47.88-143.91-29-180.4,55.09C101.62,239.8,139,319.9,206.86,346.83,267.25,370.82,401.26,347.86,407.26,297.87Z" style="fill:#fff;opacity:0.9"></path></g><g id="freepik--Shadow--inject-15"><ellipse id="freepik--path--inject-15" cx="250" cy="416.24" rx="193.89" ry="11.32" style="fill:#f5f5f5"></ellipse></g><g id="freepik--Warning--inject-15"><path d="M77.27,221.53a.43.43,0,0,1-.43-.39l-2.22-26.7A.42.42,0,0,1,75,194a.43.43,0,0,1,.46.39l2.22,26.7a.43.43,0,0,1-.39.46Z" style="fill:#21005D"></path><path d="M78.59,237.39a.43.43,0,0,1-.43-.39l-.67-8.08a.42.42,0,0,1,.39-.46.42.42,0,0,1,.46.39l.67,8.08a.43.43,0,0,1-.39.46Z" style="fill:#21005D"></path><path d="M303.56,313.37H97.08a10.63,10.63,0,0,1-10.37-9.58L75.08,164a8.7,8.7,0,0,1,8.78-9.58H290.33A10.64,10.64,0,0,1,300.71,164l11.63,139.77A8.71,8.71,0,0,1,303.56,313.37Z" style="fill:#fff"></path><path d="M303.56,313.77H97.08a11,11,0,0,1-10.77-9.94L74.68,164.05A9.2,9.2,0,0,1,77.05,157,9.1,9.1,0,0,1,83.86,154H290.33a11,11,0,0,1,10.78,10l11.62,139.77a9.09,9.09,0,0,1-9.17,10ZM83.86,154.84A8.3,8.3,0,0,0,75.47,164L87.1,303.76a10.22,10.22,0,0,0,10,9.21H303.56a8.3,8.3,0,0,0,8.38-9.14L300.31,164.05a10.21,10.21,0,0,0-10-9.21Z" style="fill:#21005D"></path><path d="M290.33,154.44H83.86A8.7,8.7,0,0,0,75.08,164H300.71A10.64,10.64,0,0,0,290.33,154.44Z" style="fill:#21005D"></path><path d="M88.69,159.23a1.87,1.87,0,0,1-1.89,2.07,2.3,2.3,0,0,1-2.24-2.07,1.88,1.88,0,0,1,1.89-2.07A2.28,2.28,0,0,1,88.69,159.23Z" style="fill:#fff"></path><path d="M97.09,159.23a1.87,1.87,0,0,1-1.89,2.07A2.3,2.3,0,0,1,93,159.23a1.88,1.88,0,0,1,1.89-2.07A2.28,2.28,0,0,1,97.09,159.23Z" style="fill:#fff"></path><path d="M105.49,159.23a1.87,1.87,0,0,1-1.89,2.07,2.3,2.3,0,0,1-2.24-2.07,1.88,1.88,0,0,1,1.89-2.07A2.28,2.28,0,0,1,105.49,159.23Z" style="fill:#fff"></path><path d="M285.64,295.05H112a8.45,8.45,0,0,1-8.25-7.61L95.59,190a6.92,6.92,0,0,1,7-7.61H276.26a8.45,8.45,0,0,1,8.25,7.61l8.11,97.49A6.92,6.92,0,0,1,285.64,295.05Z" style="fill:#f0f0f0"></path><path d="M231.92,199.41l-53.8,64.78a15.39,15.39,0,0,0,8.58,24.88L274,307.94a15.39,15.39,0,0,0,17.55-20.76l-33.47-83.66A15.39,15.39,0,0,0,231.92,199.41Z" style="fill:#263238;opacity:0.1"></path><path d="M112.16,208.49,93.42,259A9.72,9.72,0,0,0,103.48,272l54.73-5.37a9.72,9.72,0,0,0,6.65-15.74l-36-45.1A9.72,9.72,0,0,0,112.16,208.49Z" style="fill:#263238;opacity:0.1"></path><path d="M250.48,183.1l-50.3,73a16.18,16.18,0,0,0,11.2,25.22l92.46,12.31a16.18,16.18,0,0,0,16.64-23.21l-42.16-85.34A16.18,16.18,0,0,0,250.48,183.1Z" style="fill:#21005D"></path><path d="M213.57,274.8a10.22,10.22,0,0,1-7.82-5.67,9,9,0,0,1,.47-9.2l50.43-73.22a8.48,8.48,0,0,1,8.29-3.52,10.2,10.2,0,0,1,7.82,5.67L315,274.41a9,9,0,0,1-.47,9.2,8.47,8.47,0,0,1-8.29,3.53Z" style="fill:#fff"></path><path d="M260.65,209.07l5.89.78a7.57,7.57,0,0,1,6.51,7.7l-.4,7.68a5.7,5.7,0,0,1-.09.83l-4.19,23.15a6.23,6.23,0,0,1-7.11,5h0a7.61,7.61,0,0,1-6.51-6.87l-1.69-23.92a5.77,5.77,0,0,1,0-.83l.39-7.69A6.21,6.21,0,0,1,260.65,209.07Zm-.47,51.56,1.6.21a6.78,6.78,0,0,1,5.83,6.89h0a5.57,5.57,0,0,1-6.45,5.25l-1.6-.22a6.77,6.77,0,0,1-5.83-6.88h0A5.56,5.56,0,0,1,260.18,260.63Z" style="fill:#21005D"></path><path d="M131.5,194.26l-13.81,52.37a9.72,9.72,0,0,0,11.27,12l53.57-10.45A9.72,9.72,0,0,0,187.72,232L148,190.05A9.73,9.73,0,0,0,131.5,194.26Z" style="fill:#21005D"></path><path d="M128.85,254.41a5.93,5.93,0,0,1-5.42-1.82,5.81,5.81,0,0,1-1.5-5.48l13.84-52.51a5,5,0,0,1,3.92-3.65,5.94,5.94,0,0,1,5.42,1.83l39.86,42a5.82,5.82,0,0,1,1.51,5.48,5,5,0,0,1-3.92,3.64Z" style="fill:#fff"></path><path d="M142.29,206.93l3.41-.67a4.52,4.52,0,0,1,5.08,3.27L152,214.1a4.64,4.64,0,0,1,.11.51L154.28,229a3.73,3.73,0,0,1-3,4.31h0a4.5,4.5,0,0,1-4.92-2.78l-5.54-13.68a4,4,0,0,1-.17-.49l-1.26-4.58A3.76,3.76,0,0,1,142.29,206.93Zm9.65,30.28.93-.18a4,4,0,0,1,4.55,2.92h0a3.36,3.36,0,0,1-2.56,4.3l-.93.18a4,4,0,0,1-4.55-2.91h0A3.37,3.37,0,0,1,151.94,237.21Z" style="fill:#21005D"></path></g></svg>